<svg xmlns="http://www.w3.org/2000/svg" xmlns:xlink="http://www.w3.org/1999/xlink" width="55" height="54" viewBox="0 0 55 54"><defs><path id="zlata" d="M347 696.06v6.91c0 1.6-1.32 2.91-2.93 2.91h-1.35v26.2c0 1.61-1.31 2.92-2.93 2.92H299.2a2.93 2.93 0 0 1-2.93-2.91v-26.2h-1.35a2.93 2.93 0 0 1-2.93-2.92v-6.91c0-1.6 1.32-2.92 2.93-2.92h7.63a7.46 7.46 0 0 1-2-5.09v-.38a6.85 6.85 0 0 1 3.56-5.78 7.1 7.1 0 0 1 6.98 0l3.47 1.94a12.05 12.05 0 0 1 4.93 5.21c1.06-2.16 2.76-3.99 4.93-5.2l3.47-1.95a7.1 7.1 0 0 1 6.98 0 6.85 6.85 0 0 1 3.56 5.78v.38c0 1.96-.76 3.75-2 5.1h7.63c1.61 0 2.93 1.3 2.93 2.9zm-26.2-2.92h10.07a5.12 5.12 0 0 0 5.13-5.09v-.3a4.44 4.44 0 0 0-2.32-3.75 4.66 4.66 0 0 0-4.58 0l-3.47 1.95a9.6 9.6 0 0 0-4.84 7.2zm-17.8-5.09c0 2.8 2.3 5.1 5.13 5.1h10.08a9.6 9.6 0 0 0-4.84-7.2L309.9 684a4.67 4.67 0 0 0-4.58 0 4.44 4.44 0 0 0-2.32 3.75v.3zm11 21.52v-3.69h-15.28v26.2c0 .28.22.5.5.5H314V712h-5.03c-.68 0-1.22-.54-1.22-1.21 0-.67.54-1.22 1.22-1.22zm0-14h-19.07a.49.49 0 0 0-.49.49v6.91c0 .27.22.49.5.49H314zm8.56 0h-6.12v37h6.12zm17.72 36.52v-26.2H325v3.68h4.66a1.22 1.22 0 0 1 0 2.43H325v20.57h14.79c.27 0 .49-.21.49-.48zm4.28-29.12v-6.91a.49.49 0 0 0-.5-.49H325v7.89h19.07c.27 0 .49-.22.49-.49zm-10.32 7.82c0-.67.55-1.22 1.22-1.22h.12a1.22 1.22 0 0 1 0 2.43h-.12c-.67 0-1.22-.54-1.22-1.21zm-32.42 0c0-.67.55-1.22 1.22-1.22h.12a1.22 1.22 0 0 1 0 2.43h-.12c-.67 0-1.22-.54-1.22-1.21z"/></defs><g><g transform="translate(-292 -681)"><use xlink:href="#zlata"/><use fill="#f50049" xlink:href="#zlata"/></g></g></svg>